<?xml version="1.0" encoding="UTF-8"?>
<svg version="1.1" xmlns="http://www.w3.org/2000/svg" xmlns:xlink="http://www.w3.org/1999/xlink" x="0px" y="0px" viewBox="0 0 1266.44 960" style="enable-background:new 0 0 1266.44 960;" xml:space="preserve">
  <g>
    <path d="m 811.55242,0 c -12.3768,21.974417 -23.49051,44.706884 -33.59317,67.944382 -95.98119,-14.396928 -193.73049,-14.396928 -289.9637,0 C 478.14492,44.706884 466.77818,21.974417 454.40238,0 364.23057,15.407994 276.3319,42.433737 192.98052,80.573197 27.791868,325.32498 -16.915016,563.76136 5.3124181,798.91453 102.05066,870.39514 210.40865,924.95266 325.83809,959.80891 c 26.01568,-34.85625 49.00116,-71.98565 68.70243,-110.63014 -37.38241,-13.89189 -73.50174,-31.32002 -108.10497,-51.52632 9.09259,-6.56742 17.93316,-13.38686 26.52071,-19.95429 202.82308,95.47616 437.72423,95.47616 640.79933,0 8.58756,7.07246 17.42813,13.8919 26.52071,19.95429 -34.60323,20.45832 -70.72256,37.63443 -108.35699,51.77934 19.70128,38.64449 42.68576,75.77389 68.70244,110.63013 C 1056.0482,925.20568 1164.4052,870.90017 1261.1514,799.42056 1287.4131,526.63197 1216.1885,290.21572 1072.9693,80.826213 989.87492,42.686753 901.97625,15.66001 811.80444,0.50503257 Z M 422.82935,654.1862 c -62.38703,0 -114.16637,-56.57865 -114.16637,-126.54317 0,-69.96451 49.75821,-126.79618 113.91435,-126.79618 64.15614,0 115.17643,57.08369 114.16637,126.79618 -1.01007,69.7125 -50.26325,126.54317 -113.91435,126.54317 z m 420.80114,0 c -62.64104,0 -113.91435,-56.57865 -113.91435,-126.54317 0,-69.96451 49.75821,-126.79618 113.91435,-126.79618 64.15614,0 114.92441,57.08369 113.91335,126.79618 -1.01007,69.7125 -50.26324,126.54317 -113.91335,126.54317 z" />
  </g>
</svg>
