<?xml version="1.0" encoding="UTF-8"?>
<svg width="300" height="300" version="1.1" xmlns="http://www.w3.org/2000/svg"><g><title>background</title><g x="0" y="0" width="100%" height="100%" display="none" overflow="visible"><rect width="100%" height="100%" fill="url(#gridpattern)" stroke-width="0"/></g></g><g><title>Layer 1</title><g opacity=".3" stroke="#000"><line x1="141.75" x2="197.25" y1="102.5" y2="51.001" fill="#6c4f2c" stroke-linecap="null" stroke-linejoin="null" stroke-opacity=".8" stroke-width="0" style="mix-blend-mode:screen"/><g fill="none"><g stroke-linecap="null" stroke-linejoin="null"><line transform="rotate(120 124.5 55.001)" x1="104.75" x2="144.25" y1="88" y2="22.001" stroke-width="5" style="mix-blend-mode:screen"/><g stroke-width="10"><line transform="rotate(.2298 150.79 120)" x1="120.75" x2="180.83" y1="120" y2="120" style="mix-blend-mode:screen"/><line transform="rotate(.2298 150.3 143.5)" x1="109.27" x2="191.34" y1="143.5" y2="143.5" style="mix-blend-mode:screen"/><line transform="rotate(.2298 151.05 167)" x1="106.27" x2="195.84" y1="167" y2="167" style="mix-blend-mode:screen"/><line transform="rotate(.2298 150.56 190.5)" x1="103.27" x2="197.84" y1="190.5" y2="190.5" style="mix-blend-mode:screen"/><line transform="rotate(.2298 150.31 214)" x1="104.27" x2="196.35" y1="214" y2="214" style="mix-blend-mode:screen"/><line transform="rotate(.2298 150.32 236.5)" x1="110.28" x2="190.35" y1="236.5" y2="236.5" style="mix-blend-mode:screen"/><line transform="rotate(.2298 150.82 259.5)" x1="129.27" x2="172.36" y1="259.5" y2="259.5" style="mix-blend-mode:screen"/></g></g><ellipse cx="150.5" cy="185.89" rx="48.25" ry="83.611" fill-opacity="0" stroke-width="8" style="mix-blend-mode:screen"/><line x1="150" x2="150" y1="264.64" y2="285.5" fill-opacity="null" stroke-linecap="null" stroke-linejoin="null" stroke-width="5" style="mix-blend-mode:screen"/></g><circle cx="115.89" cy="123.21" r="0" fill="#0fffff" fill-opacity="0" stroke-opacity=".8" stroke-width="18" style="mix-blend-mode:screen"/><line x1="195.68" x2="156.18" y1="22.46" y2="88.46" fill="none" stroke-linecap="null" stroke-linejoin="null" stroke-width="5" style="mix-blend-mode:screen"/><ellipse transform="rotate(37.381 90.196 185.93)" cx="90.196" cy="185.93" rx="34.376" ry="87.703" stroke-opacity=".8" stroke-width="0" style="mix-blend-mode:screen"/><ellipse transform="rotate(-37 210.2 185.93)" cx="210.2" cy="185.93" rx="34.376" ry="87.703" stroke-opacity=".8" stroke-width="0" style="mix-blend-mode:screen"/><g fill="#a9bea6" stroke-opacity=".8" stroke-width="0"><circle cx="137.68" cy="115.71" r="0" style="mix-blend-mode:screen"/><circle cx="363.04" cy="137.86" r="0" style="mix-blend-mode:screen"/><circle cx="55.536" cy="153.21" r="0" style="mix-blend-mode:screen"/></g><circle cx="150.13" cy="82.332" r="36.25" stroke-opacity=".8" stroke-width="0" style="mix-blend-mode:screen"/></g></g></svg>
